<svg width="130" height="130" viewBox="0 0 130 130" fill="none" xmlns="http://www.w3.org/2000/svg">
<g clip-path="url(#clip0_52_346)">
<circle cx="94" cy="36" r="36" fill="#29251B" fill-opacity="0.44"/>
<g clip-path="url(#clip1_52_346)">
<path d="M74.6212 128.853C74.3006 128.853 73.9969 128.667 73.8619 128.363L60.4462 98.8995C60.2606 98.4776 60.4462 97.9882 60.8512 97.8026C61.2731 97.617 61.7625 97.8026 61.9481 98.2076L74.0981 124.87L76.0387 105.514C76.0725 105.228 76.2412 104.974 76.5112 104.839C76.7812 104.721 77.085 104.738 77.3212 104.907L93.555 115.724L80.7637 87.6776C80.5781 87.2557 80.7637 86.7664 81.1687 86.5807C81.5906 86.3951 82.08 86.5807 82.2656 86.9857L96.2719 117.698C96.4237 118.036 96.3394 118.441 96.0525 118.677C95.7656 118.913 95.3606 118.947 95.0569 118.728L77.5406 107.05L75.4312 128.093C75.3975 128.464 75.1106 128.768 74.7394 128.836C74.7056 128.853 74.6719 128.853 74.6212 128.853ZM33.3956 130C33.3619 130 33.3281 130 33.2944 130C32.9231 129.949 32.6362 129.663 32.5856 129.308L29.3962 109.092L12.9431 119.892C12.6394 120.094 12.2344 120.078 11.9475 119.824C11.6437 119.588 11.5594 119.2 11.7112 118.863L25.8694 87.0195C26.055 86.5976 26.5444 86.412 26.9662 86.5976C27.3881 86.7832 27.5737 87.2726 27.3881 87.6945L14.3775 116.956L29.5481 106.999C29.7844 106.848 30.0881 106.814 30.3412 106.932C30.5944 107.05 30.78 107.286 30.8306 107.556L33.7837 126.254L46.2037 98.2245C46.3894 97.8026 46.8787 97.617 47.3006 97.8026C47.7225 97.9882 47.9081 98.4776 47.7225 98.8995L34.1719 129.511C34.02 129.814 33.7162 130 33.3956 130Z" fill="#D2C090"/>
<path d="M43.0987 100.334C42.5419 100.334 41.9681 100.249 41.4281 100.08C38.9812 99.2874 37.53 96.8405 36.1125 94.478C35.1 92.7736 34.155 91.1705 32.9231 90.2761C31.6744 89.3649 29.7506 88.9261 27.8775 88.5042C25.2112 87.8968 22.4606 87.2724 20.9756 85.2136C19.5075 83.1886 19.7437 80.3874 19.98 77.6874C20.1487 75.7636 20.3175 73.7892 19.8281 72.2874C19.3725 70.8699 18.1575 69.4861 16.875 68.0349C15.0525 65.9593 13.1625 63.7993 13.1625 61.1668C13.1625 58.5343 15.0525 56.3911 16.875 54.2986C18.1575 52.8305 19.3725 51.4468 19.8281 50.0461C20.3175 48.5443 20.1487 46.5699 19.98 44.6461C19.7437 41.9461 19.4906 39.1449 20.9756 37.1199C22.4606 35.0611 25.2281 34.4368 27.8775 33.8293C29.7337 33.4074 31.6575 32.9686 32.9231 32.0574C34.155 31.163 35.1168 29.5599 36.1125 27.8555C37.5131 25.493 38.9812 23.0461 41.4281 22.253C43.7737 21.4936 46.3218 22.5736 48.8025 23.6368C50.5912 24.3961 52.4475 25.1893 54.0844 25.1893C55.7043 25.1893 57.5606 24.3961 59.3662 23.6368C61.8469 22.5905 64.395 21.4936 66.7406 22.253C69.1875 23.0461 70.6387 25.493 72.0562 27.8555C73.0687 29.5599 74.0137 31.163 75.2456 32.0574C76.4944 32.9686 78.4181 33.4074 80.2912 33.8293C82.9575 34.4368 85.7081 35.0611 87.1931 37.1199C88.6612 39.1449 88.425 41.9461 88.1887 44.6461C88.02 46.553 87.8512 48.5443 88.3406 50.0461C88.7962 51.4636 90.0112 52.8474 91.2937 54.2986C93.1162 56.3743 95.0062 58.5343 95.0062 61.1668C95.0062 63.7993 93.1162 65.9424 91.2937 68.0349C90.0112 69.503 88.7962 70.8868 88.3406 72.2874C87.8512 73.7892 88.02 75.7636 88.1887 77.6874C88.425 80.3874 88.6781 83.1886 87.1931 85.2136C85.7081 87.2555 82.9406 87.8968 80.2912 88.5042C78.435 88.9261 76.5112 89.3649 75.2456 90.2761C74.0137 91.1705 73.0687 92.7736 72.0562 94.478C70.6556 96.8405 69.1875 99.2874 66.7406 100.08C64.395 100.84 61.8469 99.7599 59.3662 98.6968C57.5775 97.9374 55.7212 97.1442 54.0844 97.1442C52.4644 97.1442 50.6081 97.9374 48.8025 98.6968C46.9125 99.5068 44.955 100.334 43.0987 100.334ZM43.1156 23.6536C42.7106 23.6536 42.3225 23.7043 41.9512 23.8224C40.095 24.4299 38.8631 26.5055 37.5637 28.6993C36.5175 30.4711 35.4206 32.2936 33.9187 33.3905C32.3831 34.5043 30.2906 34.9768 28.2656 35.4493C25.785 36.0061 23.4562 36.5461 22.3256 38.0986C21.2118 39.6174 21.4312 41.9968 21.6506 44.4943C21.8362 46.5699 22.0218 48.7299 21.4312 50.5524C20.8744 52.2905 19.4906 53.8599 18.1406 55.3955C16.5206 57.2518 14.8331 59.1586 14.8331 61.1668C14.8331 63.1749 16.5206 65.0818 18.1406 66.938C19.4737 68.4568 20.8575 70.043 21.4312 71.7811C22.0218 73.6036 21.8362 75.7636 21.6506 77.8393C21.4312 80.3536 21.2287 82.7161 22.3256 84.2349C23.4562 85.7874 25.785 86.3105 28.2656 86.8843C30.2906 87.3399 32.3831 87.8292 33.9187 88.943C35.4206 90.0399 36.5175 91.8624 37.5637 93.6343C38.8631 95.828 40.1119 97.9036 41.9512 98.5111C43.7062 99.0849 45.8662 98.1567 48.1612 97.178C50.1019 96.3511 52.1269 95.4905 54.0844 95.4905C56.0419 95.4905 58.0669 96.3511 60.0075 97.178C62.3025 98.1567 64.4625 99.0849 66.2175 98.5111C68.0737 97.9036 69.3056 95.828 70.605 93.6343C71.6512 91.8624 72.7481 90.0399 74.25 88.943C75.7856 87.8292 77.8781 87.3568 79.9031 86.8843C82.3837 86.3274 84.7125 85.7874 85.8431 84.2349C86.9568 82.7161 86.7375 80.3368 86.5181 77.8393C86.3325 75.7636 86.1469 73.6036 86.7375 71.7811C87.2944 70.043 88.6781 68.4736 90.0281 66.938C91.6481 65.0818 93.3356 63.1749 93.3356 61.1668C93.3356 59.1586 91.6481 57.2518 90.0281 55.3955C88.695 53.8768 87.3112 52.2905 86.7375 50.5524C86.1469 48.7299 86.3325 46.5868 86.5181 44.4943C86.7375 41.9799 86.94 39.6174 85.8431 38.0818C84.7125 36.5293 82.3837 36.0061 79.9031 35.4324C77.8612 34.9936 75.7687 34.5043 74.25 33.3905C72.7481 32.2936 71.6512 30.4711 70.605 28.6993C69.2887 26.5055 68.0569 24.4299 66.2175 23.8224C64.4625 23.2486 62.3025 24.1768 60.0075 25.1555C58.0669 25.9824 56.0419 26.843 54.0844 26.843C52.1269 26.843 50.1019 25.9824 48.1612 25.1555C46.3387 24.3961 44.6175 23.6536 43.1156 23.6536Z" fill="#D2C090"/>
<path d="M68.6137 84.3531C68.445 84.3531 68.2762 84.3024 68.1243 84.2012L54.0844 73.9918L40.0444 84.2012C39.7575 84.4206 39.3525 84.4206 39.0656 84.2012C38.7787 83.9818 38.6606 83.6106 38.7619 83.2731L44.1281 66.7693L30.0881 56.5599C29.8012 56.3406 29.6831 55.9693 29.7844 55.6318C29.9025 55.2943 30.2062 55.0581 30.5775 55.0581H47.925L53.2912 38.5543C53.5106 37.8624 54.6412 37.8624 54.8775 38.5543L60.2437 55.0581H77.6081C77.9625 55.0581 78.2831 55.2943 78.4012 55.6318C78.5193 55.9693 78.3843 56.3406 78.0975 56.5599L64.0575 66.7693L69.4237 83.2731C69.5418 83.6106 69.4068 83.9818 69.12 84.2012C68.9512 84.3024 68.7825 84.3531 68.6137 84.3531ZM33.1256 56.7118L45.5962 65.7737C45.8831 65.9931 46.0012 66.3643 45.9 66.7018L41.1412 81.3493L53.6119 72.2874C53.8987 72.0681 54.3037 72.0681 54.5906 72.2874L67.0612 81.3493L62.3025 66.7018C62.1843 66.3643 62.3193 65.9931 62.6062 65.7737L75.0769 56.7118H59.67C59.3156 56.7118 58.995 56.4756 58.8769 56.1381L54.1181 41.4906L49.3594 56.1381C49.2412 56.4756 48.9375 56.7118 48.5662 56.7118H33.1256Z" fill="#D2C090"/>
</g>
</g>
<defs>
<clipPath id="clip0_52_346">
<rect width="130" height="130" fill="white"/>
</clipPath>
<clipPath id="clip1_52_346">
<rect width="108" height="108" fill="white" transform="translate(0 22)"/>
</clipPath>
</defs>
</svg>
