<svg width="130" height="130" viewBox="0 0 130 130" fill="none" xmlns="http://www.w3.org/2000/svg">
<g clip-path="url(#clip0_52_339)">
<circle cx="94" cy="36" r="36" fill="#29251B" fill-opacity="0.44"/>
<g clip-path="url(#clip1_52_339)">
<path d="M52.875 112C33.075 112 16.875 95.8 16.875 76C16.875 56.2 33.075 40 52.875 40C72.675 40 88.875 56.2 88.875 76C88.875 95.8 72.675 112 52.875 112ZM52.875 42.25C34.2 42.25 19.125 57.325 19.125 76C19.125 94.675 34.2 109.75 52.875 109.75C71.55 109.75 86.625 94.675 86.625 76C86.625 57.325 71.55 42.25 52.875 42.25Z" fill="#D2C090"/>
<path d="M52.875 51.25C52.2 51.25 51.75 50.8 51.75 50.125V45.625C51.75 44.95 52.2 44.5 52.875 44.5C53.55 44.5 54 44.95 54 45.625V50.125C54 50.8 53.55 51.25 52.875 51.25ZM52.875 107.5C52.2 107.5 51.75 107.05 51.75 106.375V101.875C51.75 101.2 52.2 100.75 52.875 100.75C53.55 100.75 54 101.2 54 101.875V106.375C54 107.05 53.55 107.5 52.875 107.5ZM83.25 77.125H78.75C78.075 77.125 77.625 76.675 77.625 76C77.625 75.325 78.075 74.875 78.75 74.875H83.25C83.925 74.875 84.375 75.325 84.375 76C84.375 76.675 83.925 77.125 83.25 77.125ZM27 77.125H22.5C21.825 77.125 21.375 76.675 21.375 76C21.375 75.325 21.825 74.875 22.5 74.875H27C27.675 74.875 28.125 75.325 28.125 76C28.125 76.675 27.675 77.125 27 77.125ZM72.675 57.325C72.45 57.325 72 57.325 71.775 57.1C71.325 56.65 71.325 55.975 71.775 55.525L73.35 53.95C73.8 53.5 74.475 53.5 74.925 53.95C75.375 54.4 75.375 55.075 74.925 55.525L73.35 57.1C73.35 57.1 73.125 57.325 72.675 57.325ZM31.5 98.5C31.275 98.5 30.825 98.5 30.6 98.275C30.15 97.825 30.15 97.15 30.6 96.7L32.175 95.125C32.625 94.675 33.3 94.675 33.75 95.125C34.2 95.575 34.2 96.25 33.75 96.7L32.175 98.275C31.95 98.5 31.725 98.5 31.5 98.5ZM74.25 98.5C74.025 98.5 73.575 98.5 73.35 98.275L72 96.7C71.55 96.25 71.55 95.575 72 95.125C72.45 94.675 73.125 94.675 73.575 95.125L75.15 96.7C75.6 97.15 75.6 97.825 75.15 98.275C74.925 98.5 74.7 98.5 74.25 98.5ZM33.075 57.325C32.85 57.325 32.4 57.325 32.175 57.1L30.6 55.525C30.15 55.075 30.15 54.4 30.6 53.95C31.05 53.5 31.725 53.5 32.175 53.95L33.75 55.525C34.2 55.975 34.2 56.65 33.75 57.1C33.525 57.1 33.3 57.325 33.075 57.325ZM78.75 66.325C78.3 66.325 77.85 66.1 77.625 65.65C77.4 64.975 77.625 64.525 78.3 64.075L80.325 63.175C81 62.95 81.45 63.175 81.9 63.85C82.125 64.525 81.9 64.975 81.225 65.425L79.2 66.325H78.75ZM24.75 88.825C24.3 88.825 23.85 88.6 23.625 88.15C23.4 87.475 23.625 87.025 24.3 86.575L26.325 85.675C27 85.45 27.45 85.675 27.9 86.35C28.125 87.025 27.9 87.475 27.225 87.925L25.2 88.825H24.75ZM64.575 105.25C64.125 105.25 63.675 105.025 63.45 104.575L62.55 102.55C62.325 101.875 62.55 101.425 63.225 100.975C63.9 100.75 64.35 100.975 64.8 101.65L65.7 103.675C65.925 104.35 65.7 104.8 65.025 105.25H64.575ZM42.075 51.25C41.625 51.25 41.175 51.025 40.95 50.575L40.05 48.55C39.825 47.875 40.05 47.425 40.725 46.975C41.4 46.75 41.85 46.975 42.3 47.65L43.2 49.675C43.425 50.35 43.2 50.8 42.525 51.25C42.3 51.025 42.3 51.25 42.075 51.25ZM27 66.325H26.55L24.525 65.425C23.85 65.2 23.625 64.525 23.85 63.85C24.075 63.175 24.75 62.95 25.425 63.175L27.45 64.075C28.125 64.3 28.35 64.975 28.125 65.65C27.675 66.1 27.45 66.325 27 66.325ZM81 88.825H80.55L78.525 87.925C77.85 87.7 77.625 87.025 77.85 86.35C78.075 85.675 78.75 85.45 79.425 85.675L81.45 86.575C82.125 86.8 82.35 87.475 82.125 88.15C81.9 88.6 81.45 88.825 81 88.825ZM41.175 105.25H40.725C40.05 105.025 39.825 104.35 40.05 103.675L40.95 101.65C41.175 100.975 41.85 100.75 42.525 100.975C43.2 101.2 43.425 101.875 43.2 102.55L42.3 104.575C42.075 105.025 41.625 105.25 41.175 105.25ZM63.675 51.25H63.225C62.55 51.025 62.325 50.35 62.55 49.675L63.45 47.65C63.675 46.975 64.35 46.75 65.025 46.975C65.7 47.2 65.925 47.875 65.7 48.55L64.8 50.575C64.575 50.8 64.125 51.25 63.675 51.25ZM56.7 87.925C56.475 87.925 56.25 87.925 56.25 87.7C55.8 87.475 55.575 86.8 55.8 86.125L65.925 68.125C66.15 67.675 66.825 67.45 67.5 67.675C67.95 67.9 68.175 68.575 67.95 69.25L57.825 87.25C57.6 87.7 57.15 87.925 56.7 87.925ZM67.5 86.8H67.05C66.375 86.575 66.15 85.9 66.375 85.45L69.075 78.025H66.15C65.475 78.025 65.025 77.575 65.025 76.9C65.025 76.225 65.475 75.775 66.15 75.775H70.65C71.1 75.775 71.325 76 71.55 76.225C71.775 76.45 71.775 76.9 71.775 77.35L68.4 86.35C68.4 86.35 67.95 86.8 67.5 86.8ZM57.375 77.8H48.375C48.15 77.8 47.7 77.575 47.475 77.35C47.25 77.125 47.25 76.675 47.25 76.45L49.5 65.2C49.725 64.525 50.175 64.3 50.85 64.3C51.525 64.525 51.75 64.975 51.75 65.65L49.725 75.55H57.375C58.05 75.55 58.5 76 58.5 76.675C58.5 77.35 58.05 77.8 57.375 77.8Z" fill="#D2C090"/>
<path d="M55.125 80.05C54.45 80.05 54 79.6 54 78.925V69.925C54 69.25 54.45 68.8 55.125 68.8C55.8 68.8 56.25 69.25 56.25 69.925V78.925C56.25 79.375 55.8 80.05 55.125 80.05ZM43.875 80.05H34.875C34.425 80.05 33.975 79.8251 33.75 79.3751C33.525 78.9251 33.75 78.475 34.2 78.025L41.85 72.175C42.3 71.725 42.75 70.825 42.75 69.925C42.75 68.125 41.175 66.55 39.375 66.55C37.575 66.55 36 67.9 36 69.925C36 70.6 35.55 71.05 34.875 71.05C34.2 71.05 33.75 70.375 33.75 69.925C33.75 66.775 36.225 64.3 39.375 64.3C42.525 64.3 45 66.775 45 69.925C45 71.5 44.325 72.8501 43.425 73.9751L38.25 77.8H43.875C44.55 77.8 45 78.25 45 78.925C45 79.6 44.55 80.05 43.875 80.05Z" fill="#D2C090"/>
<path d="M54 130C24.3 130 0 105.7 0 76C0 46.3 24.3 22 54 22C83.7 22 108 46.3 108 76C108 105.7 83.7 130 54 130ZM54 24.25C25.425 24.25 2.25 47.425 2.25 76C2.25 104.575 25.425 127.75 54 127.75C82.575 127.75 105.75 104.575 105.75 76C105.75 47.425 82.575 24.25 54 24.25Z" fill="#D2C090"/>
</g>
</g>
<defs>
<clipPath id="clip0_52_339">
<rect width="130" height="130" fill="white"/>
</clipPath>
<clipPath id="clip1_52_339">
<rect width="108" height="108" fill="white" transform="translate(0 22)"/>
</clipPath>
</defs>
</svg>
