<svg width="130" height="130" viewBox="0 0 130 130" fill="none" xmlns="http://www.w3.org/2000/svg">
<g clip-path="url(#clip0_52_352)">
<circle cx="94" cy="36" r="36" fill="#29251B" fill-opacity="0.44"/>
<path d="M12.0913 38.5058C12.098 38.7379 13.0295 61.6664 35.0588 70.0877C37.9012 73.4315 41.3613 76.1964 45.25 78.2309V95.554H38.5V105H33.1L33.1013 113.961C33.0473 115.284 31.9984 116.32 30.7145 116.32H29.05V125.25H74.95V116.32H73.2476C71.9516 116.32 70.9 115.287 70.9 114.017V105H65.5V95.554H58.75V78.2309C62.6769 76.1763 66.1662 73.377 69.0235 69.9891C91.0555 61.5651 91.9033 38.7312 91.9087 38.5017L91.9438 37.1166H78.6544C78.5288 33.9576 78.2116 31.9556 78.1981 31.8746L78.0077 30.75H25.9922L25.8032 31.8746C25.7884 31.9556 25.4711 33.9576 25.3456 37.1166H12.0508L12.0913 38.5071V38.5058ZM72.25 118.923V122.55H31.75V118.914C33.9964 118.446 35.7001 116.479 35.8 114.017V107.7H68.2V114.017C68.2 116.437 69.9428 118.462 72.25 118.921V118.923ZM62.8 105H41.2V98.2541H62.8V105ZM89.1061 39.8166C88.6376 44.2662 86.0699 58.1226 72.2176 65.5732C77.5622 56.7875 78.6841 46.6598 78.703 39.8153L89.1061 39.8166ZM28.3156 33.45H75.683C76.3391 39.2199 78.0658 65.58 56.7965 76.1991L56.05 76.569V95.5527H47.95V76.5704L47.2034 76.1991C25.9342 65.58 27.6595 39.2199 28.3169 33.45H28.3156ZM25.297 39.8166C25.3172 46.6813 26.4472 56.8509 31.8364 65.6556C17.9935 58.1901 15.3826 44.2824 14.8979 39.8166H25.297Z" fill="#D2C090"/>
</g>
<defs>
<clipPath id="clip0_52_352">
<rect width="130" height="130" fill="white"/>
</clipPath>
</defs>
</svg>
