<svg width="176" height="48" viewBox="0 0 176 48" fill="none" xmlns="http://www.w3.org/2000/svg">
<path d="M0.467685 47V1.18182H11.5419V38.0064H30.603V47H0.467685ZM77.7971 24.0909C77.7971 29.1321 76.8276 33.4052 74.8887 36.9102C72.9498 40.4151 70.3248 43.0774 67.0137 44.897C63.7175 46.7166 60.0186 47.6264 55.9171 47.6264C51.8006 47.6264 48.0943 46.7092 44.7981 44.8746C41.502 43.0401 38.8844 40.3778 36.9455 36.8878C35.0215 33.3828 34.0595 29.1172 34.0595 24.0909C34.0595 19.0497 35.0215 14.7766 36.9455 11.2717C38.8844 7.76669 41.502 5.1044 44.7981 3.2848C48.0943 1.4652 51.8006 0.555396 55.9171 0.555396C60.0186 0.555396 63.7175 1.4652 67.0137 3.2848C70.3248 5.1044 72.9498 7.76669 74.8887 11.2717C76.8276 14.7766 77.7971 19.0497 77.7971 24.0909ZM66.4767 24.0909C66.4767 21.108 66.0517 18.5874 65.2015 16.5291C64.3663 14.4709 63.1582 12.9123 61.5772 11.8533C60.0112 10.7944 58.1245 10.2649 55.9171 10.2649C53.7246 10.2649 51.8379 10.7944 50.2569 11.8533C48.676 12.9123 47.4604 14.4709 46.6103 16.5291C45.775 18.5874 45.3574 21.108 45.3574 24.0909C45.3574 27.0739 45.775 29.5945 46.6103 31.6527C47.4604 33.7109 48.676 35.2695 50.2569 36.3285C51.8379 37.3874 53.7246 37.9169 55.9171 37.9169C58.1245 37.9169 60.0112 37.3874 61.5772 36.3285C63.1582 35.2695 64.3663 33.7109 65.2015 31.6527C66.0517 29.5945 66.4767 27.0739 66.4767 24.0909ZM114.331 16.1488C114.077 15.2092 113.704 14.3814 113.212 13.6655C112.72 12.9347 112.116 12.3157 111.4 11.8086C110.684 11.3015 109.864 10.9212 108.939 10.6676C108.014 10.3991 107 10.2649 105.896 10.2649C103.674 10.2649 101.75 10.8018 100.124 11.8757C98.5137 12.9496 97.2683 14.5156 96.3883 16.5739C95.5083 18.6172 95.0684 21.1005 95.0684 24.0238C95.0684 26.962 95.4934 29.4677 96.3436 31.5408C97.1937 33.614 98.4242 35.195 100.035 36.2837C101.646 37.3725 103.6 37.9169 105.896 37.9169C107.925 37.9169 109.64 37.5888 111.042 36.9325C112.459 36.2614 113.533 35.3143 114.264 34.0913C114.994 32.8683 115.36 31.429 115.36 29.7734L117.418 30.0195H106.277V21.9432H126.031V28.006C126.031 32.1076 125.159 35.62 123.414 38.5433C121.684 41.4666 119.297 43.7113 116.255 45.2773C113.227 46.8434 109.744 47.6264 105.807 47.6264C101.437 47.6264 97.5964 46.6793 94.2853 44.7852C90.9743 42.891 88.394 40.1914 86.5446 36.6864C84.6951 33.1665 83.7704 28.9904 83.7704 24.158C83.7704 20.3995 84.3297 17.0661 85.4483 14.1577C86.5669 11.2344 88.1255 8.75852 90.1241 6.73011C92.1376 4.7017 94.4643 3.16548 97.1042 2.12145C99.7591 1.07741 102.615 0.555396 105.673 0.555396C108.328 0.555396 110.796 0.935723 113.078 1.69638C115.375 2.45703 117.403 3.5309 119.163 4.91797C120.938 6.30504 122.377 7.95313 123.481 9.86222C124.585 11.7713 125.271 13.8668 125.539 16.1488H114.331ZM175.804 24.0909C175.804 29.1321 174.834 33.4052 172.896 36.9102C170.957 40.4151 168.332 43.0774 165.021 44.897C161.724 46.7166 158.025 47.6264 153.924 47.6264C149.807 47.6264 146.101 46.7092 142.805 44.8746C139.509 43.0401 136.891 40.3778 134.952 36.8878C133.028 33.3828 132.066 29.1172 132.066 24.0909C132.066 19.0497 133.028 14.7766 134.952 11.2717C136.891 7.76669 139.509 5.1044 142.805 3.2848C146.101 1.4652 149.807 0.555396 153.924 0.555396C158.025 0.555396 161.724 1.4652 165.021 3.2848C168.332 5.1044 170.957 7.76669 172.896 11.2717C174.834 14.7766 175.804 19.0497 175.804 24.0909ZM164.484 24.0909C164.484 21.108 164.059 18.5874 163.208 16.5291C162.373 14.4709 161.165 12.9123 159.584 11.8533C158.018 10.7944 156.131 10.2649 153.924 10.2649C151.731 10.2649 149.845 10.7944 148.264 11.8533C146.683 12.9123 145.467 14.4709 144.617 16.5291C143.782 18.5874 143.364 21.108 143.364 24.0909C143.364 27.0739 143.782 29.5945 144.617 31.6527C145.467 33.7109 146.683 35.2695 148.264 36.3285C149.845 37.3874 151.731 37.9169 153.924 37.9169C156.131 37.9169 158.018 37.3874 159.584 36.3285C161.165 35.2695 162.373 33.7109 163.208 31.6527C164.059 29.5945 164.484 27.0739 164.484 24.0909Z" fill="white"/>
</svg>
