<svg width="78" height="78" viewBox="0 0 78 78" fill="none" xmlns="http://www.w3.org/2000/svg">
<circle cx="39" cy="39" r="36.5" stroke="#D2C090" stroke-opacity="0.21" stroke-width="5"/>
<g clip-path="url(#clip0_75_2)">
<path d="M47.98 49.42C47.7524 49.4218 47.5272 49.374 47.32 49.28C46.9051 49.1051 46.5749 48.7749 46.4 48.36L45.64 46.52C45.6011 46.4238 45.6011 46.3162 45.64 46.22C45.6601 46.1705 45.6899 46.1255 45.7277 46.0877C45.7655 46.0499 45.8105 46.0201 45.86 46C45.9105 45.9773 45.9647 45.9638 46.02 45.96C46.1021 45.9603 46.1822 45.9853 46.2499 46.0316C46.3177 46.078 46.37 46.1436 46.4 46.22L47.16 48.06C47.2543 48.2744 47.4256 48.4457 47.64 48.54C47.7495 48.5776 47.8642 48.5978 47.98 48.6C48.0961 48.6013 48.2114 48.5809 48.32 48.54L50.32 47.72C50.4281 47.6762 50.5263 47.6112 50.6087 47.5287C50.6912 47.4463 50.7562 47.3481 50.8 47.24C50.8499 47.1336 50.8758 47.0175 50.8758 46.9C50.8758 46.7825 50.8499 46.6664 50.8 46.56L50.04 44.72C50.0055 44.6309 50.0026 44.5327 50.0317 44.4417C50.0608 44.3508 50.1202 44.2725 50.2 44.22C51.4731 43.3669 52.5669 42.2731 53.42 41C53.457 40.9438 53.5075 40.8979 53.5669 40.8664C53.6264 40.835 53.6928 40.819 53.76 40.82C53.8153 40.8238 53.8694 40.8373 53.92 40.86L55.76 41.62C55.8686 41.6609 55.9839 41.6813 56.1 41.68C56.2743 41.679 56.4445 41.6275 56.5901 41.5317C56.7357 41.4358 56.8503 41.2997 56.92 41.14L57.76 39.14C57.804 39.0337 57.8264 38.9197 57.826 38.8047C57.8257 38.6897 57.8025 38.5758 57.7579 38.4698C57.7132 38.3638 57.648 38.2677 57.566 38.187C57.484 38.1064 57.3867 38.0428 57.28 38L55.44 37.24C55.354 37.2016 55.2835 37.1352 55.24 37.0517C55.1964 36.9682 55.1823 36.8725 55.2 36.78C55.5 35.2815 55.5 33.7384 55.2 32.24C55.1788 32.1473 55.1913 32.0501 55.2353 31.9658C55.2793 31.8815 55.3518 31.8156 55.44 31.78L57.28 31.02C57.3881 30.9762 57.4863 30.9112 57.5687 30.8287C57.6512 30.7463 57.7162 30.6481 57.76 30.54C57.8099 30.4336 57.8358 30.3175 57.8358 30.2C57.8358 30.0825 57.8099 29.9664 57.76 29.86L56.94 27.86C56.8962 27.7519 56.8312 27.6537 56.7487 27.5712C56.6663 27.4888 56.5681 27.4237 56.46 27.38C56.2403 27.3006 55.9997 27.3006 55.78 27.38L53.94 28.14C53.8903 28.165 53.8356 28.1787 53.78 28.18C53.713 28.1797 53.647 28.1632 53.5878 28.1319C53.5286 28.1005 53.4779 28.0553 53.44 28C52.5869 26.7269 51.4931 25.633 50.22 24.78C50.141 24.7269 50.0835 24.6474 50.0578 24.5558C50.0322 24.4641 50.04 24.3664 50.08 24.28L50.84 22.44C50.93 22.2223 50.93 21.9777 50.84 21.76C50.7524 21.5526 50.5874 21.3875 50.38 21.3L48.38 20.46C48.2565 20.4235 48.1287 20.4033 48 20.4C47.8257 20.4009 47.6554 20.4525 47.5099 20.5483C47.3643 20.6442 47.2497 20.7802 47.18 20.94L46.42 22.78C46.3865 22.8539 46.3333 22.9172 46.2663 22.9631C46.1993 23.0089 46.121 23.0355 46.04 23.04H45.96C45.2083 22.8974 44.4451 22.8238 43.68 22.82C42.9215 22.8229 42.1648 22.8966 41.42 23.04C41.38 23.04 41.36 23.06 41.32 23.06C41.2404 23.0593 41.1631 23.0339 41.0986 22.9873C41.0341 22.9407 40.9857 22.8753 40.96 22.8L40.2 20.94C40.1562 20.8319 40.0912 20.7337 40.0087 20.6512C39.9263 20.5688 39.8281 20.5037 39.72 20.46C39.6105 20.4224 39.4958 20.4021 39.38 20.4C39.2639 20.3987 39.1486 20.419 39.04 20.46L37.04 21.28C36.9336 21.3233 36.8367 21.3871 36.755 21.4678C36.6732 21.5485 36.6082 21.6446 36.5636 21.7505C36.5191 21.8563 36.4958 21.97 36.4952 22.0849C36.4945 22.1997 36.5166 22.3136 36.56 22.42L37.32 24.26C37.3545 24.3491 37.3574 24.4473 37.3283 24.5382C37.2992 24.6292 37.2398 24.7075 37.16 24.76C35.8869 25.613 34.793 26.7069 33.94 27.98C33.903 28.0361 33.8525 28.0821 33.793 28.1135C33.7336 28.145 33.6672 28.161 33.6 28.16C33.5447 28.1562 33.4905 28.1426 33.44 28.12L31.6 27.36C31.4909 27.3207 31.3759 27.3004 31.26 27.3C31.1439 27.2987 31.0286 27.319 30.92 27.36C30.711 27.4523 30.5411 27.6151 30.44 27.82L29.6 29.82C29.5206 30.0397 29.5206 30.2803 29.6 30.5C29.6943 30.7144 29.8656 30.8857 30.08 30.98L31.92 31.74C31.971 31.7596 32.0174 31.7895 32.0564 31.8277C32.0954 31.866 32.1262 31.9118 32.1468 31.9624C32.1674 32.013 32.1774 32.0673 32.1763 32.1219C32.1751 32.1765 32.1627 32.2303 32.14 32.28C32.11 32.3564 32.0577 32.422 31.9899 32.4684C31.9222 32.5147 31.8421 32.5397 31.76 32.54C31.7047 32.5362 31.6505 32.5226 31.6 32.5L29.76 31.74C29.345 31.5651 29.0149 31.2349 28.84 30.82C28.7509 30.6149 28.705 30.3936 28.705 30.17C28.705 29.9464 28.7509 29.7251 28.84 29.52L29.68 27.52C29.8539 27.1097 30.1814 26.7837 30.5926 26.6118C31.0037 26.4398 31.4658 26.4356 31.88 26.6L33.4 27.24L33.58 27C34.3024 26.0376 35.1576 25.1824 36.12 24.46L36.36 24.28L35.72 22.76C35.6309 22.5549 35.585 22.3336 35.585 22.11C35.585 21.8864 35.6309 21.6651 35.72 21.46C35.8949 21.045 36.225 20.7149 36.64 20.54L38.64 19.72C38.8448 19.6359 39.0643 19.593 39.2857 19.5938C39.5071 19.5945 39.7263 19.6388 39.9306 19.7243C40.1348 19.8097 40.3203 19.9346 40.4764 20.0917C40.6324 20.2488 40.756 20.4351 40.84 20.64L41.48 22.16L41.78 22.12C42.3762 22.0336 42.9776 21.9868 43.58 21.98C44.1828 21.9769 44.7849 22.0237 45.38 22.12L45.68 22.16L46.32 20.64C46.4465 20.3307 46.6627 20.0664 46.9407 19.8811C47.2187 19.6958 47.5459 19.5979 47.88 19.6C48.099 19.5992 48.3162 19.6399 48.52 19.72L50.52 20.56C50.9349 20.7349 51.2651 21.065 51.44 21.48C51.5291 21.6851 51.575 21.9064 51.575 22.13C51.575 22.3536 51.5291 22.5749 51.44 22.78L50.8 24.3L51.04 24.48C52.0024 25.2024 52.8576 26.0576 53.58 27.02L53.76 27.26L55.28 26.62C55.4848 26.5359 55.7043 26.493 55.9257 26.4938C56.1471 26.4945 56.3663 26.5388 56.5706 26.6243C56.7748 26.7097 56.9603 26.8346 57.1164 26.9917C57.2724 27.1488 57.396 27.3351 57.48 27.54L58.3 29.54C58.3891 29.7451 58.435 29.9664 58.435 30.19C58.435 30.4136 58.3891 30.6349 58.3 30.84C58.1251 31.2549 57.7949 31.5851 57.38 31.76L55.86 32.4L55.9 32.7C56.08 33.8932 56.08 35.1067 55.9 36.3L55.86 36.6L57.38 37.24C57.7949 37.4149 58.1251 37.745 58.3 38.16C58.3891 38.3651 58.435 38.5864 58.435 38.81C58.435 39.0336 58.3891 39.2549 58.3 39.46L57.46 41.46C57.3334 41.7692 57.1173 42.0335 56.8392 42.2189C56.5612 42.4042 56.2341 42.5021 55.9 42.5C55.681 42.5008 55.4638 42.4601 55.26 42.38L53.74 41.74L53.56 41.98C52.8376 42.9424 51.9824 43.7976 51.02 44.52L50.78 44.7L51.42 46.22C51.5091 46.4251 51.555 46.6464 51.555 46.87C51.555 47.0936 51.5091 47.3149 51.42 47.52C51.2451 47.9349 50.9149 48.2651 50.5 48.44L48.5 49.26C48.42 49.38 48.2 49.42 47.98 49.42Z" fill="#D2C090" stroke="#D2C090" stroke-width="0.5"/>
<path d="M43.72 40.68C43.6118 40.6806 43.5076 40.6393 43.4293 40.5647C43.351 40.4901 43.3046 40.388 43.3 40.28C43.298 40.2244 43.3077 40.169 43.3283 40.1173C43.349 40.0657 43.3802 40.0189 43.42 39.98C43.4938 39.9046 43.5945 39.8615 43.7 39.86C45.1215 39.8547 46.4828 39.2849 47.4842 38.2759C48.4857 37.267 49.0453 35.9015 49.04 34.48C49.0347 33.0584 48.4649 31.6972 47.4559 30.6957C46.447 29.6943 45.0815 29.1347 43.66 29.14H43.62C42.9149 29.1399 42.2169 29.2815 41.5676 29.5563C40.9183 29.8312 40.3308 30.2337 39.84 30.74C39.3447 31.24 38.9535 31.8334 38.6892 32.4856C38.4248 33.1379 38.2926 33.8362 38.3 34.54C38.3019 34.5956 38.2923 34.651 38.2716 34.7026C38.251 34.7543 38.2198 34.8011 38.18 34.84C38.1061 34.9153 38.0055 34.9585 37.9 34.96C37.8458 34.9627 37.7916 34.9543 37.7408 34.9355C37.6899 34.9166 37.6434 34.8875 37.6041 34.8501C37.5648 34.8127 37.5336 34.7677 37.5122 34.7178C37.4909 34.6679 37.4799 34.6142 37.48 34.56C37.4747 33.7484 37.6294 32.9437 37.9351 32.1919C38.2408 31.4401 38.6916 30.7559 39.2617 30.1783C39.8319 29.6007 40.5102 29.1411 41.258 28.8257C42.0058 28.5102 42.8084 28.3452 43.62 28.34H43.66C45.2884 28.3409 46.8506 28.9841 48.0077 30.1299C49.1647 31.2757 49.8231 32.8317 49.84 34.46C49.8507 36.0956 49.2125 37.6687 48.0653 38.8346C46.9181 40.0005 45.3556 40.6641 43.72 40.68Z" fill="#D2C090" stroke="#D2C090" stroke-width="0.5"/>
<path d="M30.04 58.42C29.8625 58.4195 29.6868 58.3838 29.5232 58.315C29.3595 58.2463 29.2111 58.1457 29.0865 58.0193C28.962 57.8928 28.8637 57.743 28.7973 57.5783C28.731 57.4137 28.6979 57.2375 28.7 57.06V55.96L28.4 55.88C27.6471 55.6844 26.9264 55.3813 26.26 54.98L26 54.82L25.22 55.6C25.0956 55.7285 24.9463 55.8302 24.7813 55.899C24.6162 55.9678 24.4388 56.0022 24.26 56C24.0815 56.0003 23.9046 55.9651 23.7398 55.8965C23.575 55.8278 23.4255 55.727 23.3 55.6L22.18 54.48C21.9301 54.227 21.79 53.8856 21.79 53.53C21.79 53.1744 21.9301 52.833 22.18 52.58L22.96 51.8L22.8 51.54C22.4152 50.8654 22.1131 50.1469 21.9 49.4L21.82 49.1H20.74C20.3795 49.0995 20.0339 48.956 19.7789 48.7011C19.524 48.4461 19.3805 48.1005 19.38 47.74V46.2C19.3805 45.8395 19.524 45.4939 19.7789 45.2389C20.0339 44.984 20.3795 44.8405 20.74 44.84H21.86L21.94 44.54C22.1356 43.7871 22.4387 43.0664 22.84 42.4L23 42.14L22.22 41.36C21.9701 41.107 21.83 40.7656 21.83 40.41C21.83 40.0544 21.9701 39.713 22.22 39.46L23.34 38.34C23.4644 38.2115 23.6137 38.1098 23.7787 38.041C23.9438 37.9722 24.1212 37.9378 24.3 37.94C24.4786 37.9397 24.6554 37.9749 24.8202 38.0435C24.985 38.1122 25.1345 38.213 25.26 38.34L26.04 39.12L26.3 38.96C26.9747 38.5752 27.6931 38.2731 28.44 38.06L28.74 37.98V36.86C28.7394 36.5026 28.8798 36.1594 29.1307 35.9048C29.3815 35.6502 29.7226 35.5047 30.08 35.5H31.66C32.0205 35.5005 32.3662 35.644 32.6211 35.8989C32.876 36.1539 33.0195 36.4995 33.02 36.86V37.98L33.32 38.06C34.0729 38.2556 34.7936 38.5587 35.46 38.96L35.72 39.12L36.5 38.34C36.6244 38.2115 36.7737 38.1098 36.9387 38.041C37.1038 37.9722 37.2812 37.9378 37.46 37.94C37.6386 37.9397 37.8154 37.9749 37.9802 38.0435C38.145 38.1122 38.2945 38.213 38.42 38.34L39.54 39.46C39.6685 39.5844 39.7702 39.7337 39.839 39.8987C39.9078 40.0638 39.9422 40.2412 39.94 40.42C39.9403 40.5985 39.9051 40.7754 39.8365 40.9402C39.7678 41.105 39.667 41.2545 39.54 41.38L38.76 42.16L38.92 42.42C39.3048 43.0946 39.6069 43.8131 39.82 44.56L39.9 44.86H41.02C41.3805 44.8605 41.7262 45.004 41.9811 45.2589C42.236 45.5139 42.3795 45.8595 42.38 46.22V47.8C42.3795 48.1605 42.236 48.5061 41.9811 48.7611C41.7262 49.016 41.3805 49.1595 41.02 49.16H39.8L39.72 49.46C39.5244 50.2129 39.2213 50.9336 38.82 51.6L38.66 51.86L39.44 52.64C39.5685 52.7644 39.6702 52.9137 39.739 53.0787C39.8078 53.2438 39.8422 53.4212 39.84 53.6C39.8403 53.7785 39.8051 53.9554 39.7365 54.1202C39.6678 54.285 39.567 54.4345 39.44 54.56L38.32 55.68C38.1956 55.8085 38.0463 55.9102 37.8813 55.979C37.7162 56.0478 37.5388 56.0822 37.36 56.08C37.1815 56.0803 37.0046 56.0451 36.8398 55.9765C36.675 55.9078 36.5255 55.807 36.4 55.68L35.62 54.9L35.4 55C34.7254 55.3848 34.0069 55.6869 33.26 55.9L32.96 55.98V57.1C32.9595 57.4605 32.816 57.8061 32.5611 58.0611C32.3062 58.316 31.9605 58.4595 31.6 58.46H30.04V58.42ZM25.94 53.9C26.0267 53.8988 26.1113 53.927 26.18 53.98C27.0918 54.585 28.1096 55.0124 29.18 55.24C29.2754 55.2545 29.3623 55.3029 29.4248 55.3764C29.4873 55.4499 29.5211 55.5435 29.52 55.64V57.08C29.5195 57.1484 29.5326 57.2163 29.5585 57.2796C29.5844 57.343 29.6227 57.4005 29.6711 57.4489C29.7195 57.4973 29.7771 57.5356 29.8404 57.5615C29.9037 57.5874 29.9716 57.6005 30.04 57.6H31.62C31.6884 57.6005 31.7563 57.5874 31.8196 57.5615C31.883 57.5356 31.9405 57.4973 31.9889 57.4489C32.0373 57.4005 32.0756 57.343 32.1015 57.2796C32.1274 57.2163 32.1405 57.1484 32.14 57.08V55.64C32.1389 55.5435 32.1727 55.4499 32.2352 55.3764C32.2977 55.3029 32.3846 55.2545 32.48 55.24C33.5609 55.0266 34.5879 54.5981 35.5 53.98C35.5643 53.933 35.6406 53.9053 35.72 53.9C35.8316 53.9005 35.9388 53.9434 36.02 54.02L37.04 55.04C37.1409 55.1409 37.2773 55.1984 37.42 55.2C37.4877 55.1991 37.5545 55.1845 37.6164 55.1569C37.6783 55.1294 37.734 55.0897 37.78 55.04L38.9 53.92C39.001 53.8191 39.0584 53.6827 39.06 53.54C39.0545 53.3981 38.9976 53.2631 38.9 53.16L37.88 52.14C37.8122 52.0724 37.7709 51.9828 37.7636 51.8874C37.7563 51.792 37.7834 51.6971 37.84 51.62C38.4581 50.7079 38.8866 49.6809 39.1 48.6C39.1145 48.5046 39.1629 48.4177 39.2364 48.3552C39.3099 48.2927 39.4035 48.2589 39.5 48.26H40.94C41.0084 48.2605 41.0763 48.2474 41.1396 48.2215C41.203 48.1956 41.2605 48.1573 41.3089 48.1089C41.3573 48.0605 41.3956 48.003 41.4215 47.9396C41.4475 47.8763 41.4605 47.8084 41.46 47.74V46.16C41.4605 46.0916 41.4475 46.0237 41.4215 45.9604C41.3956 45.897 41.3573 45.8395 41.3089 45.7911C41.2605 45.7427 41.203 45.7044 41.1396 45.6785C41.0763 45.6526 41.0084 45.6395 40.94 45.64H39.5C39.4035 45.6411 39.3099 45.6073 39.2364 45.5448C39.1629 45.4823 39.1145 45.3954 39.1 45.3C38.8829 44.2202 38.4547 43.1939 37.84 42.28C37.7874 42.2014 37.7628 42.1074 37.7701 42.0131C37.7773 41.9188 37.816 41.8297 37.88 41.76L38.9 40.74C39.001 40.6391 39.0584 40.5027 39.06 40.36C39.0545 40.2181 38.9976 40.0831 38.9 39.98L37.78 38.86C37.6791 38.7591 37.5427 38.7016 37.4 38.7C37.2581 38.7055 37.1231 38.7624 37.02 38.86L36 39.88C35.9262 39.9554 35.8255 39.9985 35.72 40C35.6424 40.0018 35.566 39.9809 35.5 39.94C34.5879 39.3219 33.5609 38.8934 32.48 38.68C32.3846 38.6655 32.2977 38.6171 32.2352 38.5436C32.1727 38.4701 32.1389 38.3765 32.14 38.28V36.84C32.1405 36.7716 32.1274 36.7037 32.1015 36.6404C32.0756 36.577 32.0373 36.5195 31.9889 36.4711C31.9405 36.4227 31.883 36.3844 31.8196 36.3585C31.7563 36.3326 31.6884 36.3195 31.62 36.32H30.04C29.9716 36.3195 29.9037 36.3326 29.8404 36.3585C29.7771 36.3844 29.7195 36.4227 29.6711 36.4711C29.6227 36.5195 29.5844 36.577 29.5585 36.6404C29.5326 36.7037 29.5195 36.7716 29.52 36.84V38.28C29.5211 38.3765 29.4873 38.4701 29.4248 38.5436C29.3623 38.6171 29.2754 38.6655 29.18 38.68C28.1002 38.8971 27.0739 39.3253 26.16 39.94C26.0957 39.987 26.0194 40.0147 25.94 40.02C25.8284 40.0195 25.7212 39.9766 25.64 39.9L24.62 38.86C24.5191 38.7591 24.3827 38.7016 24.24 38.7C24.0981 38.7055 23.9631 38.7624 23.86 38.86L22.74 39.98C22.6895 40.0295 22.6493 40.0887 22.6219 40.1539C22.5944 40.2192 22.5803 40.2892 22.5803 40.36C22.5803 40.4308 22.5944 40.5008 22.6219 40.5661C22.6493 40.6313 22.6895 40.6905 22.74 40.74L23.8 41.8C23.8678 41.8676 23.9091 41.9572 23.9164 42.0526C23.9237 42.148 23.8966 42.2429 23.84 42.32C23.2219 43.2321 22.7934 44.2591 22.58 45.34C22.5655 45.4354 22.5171 45.5223 22.4436 45.5848C22.3701 45.6473 22.2765 45.6811 22.18 45.68H20.76C20.6916 45.6795 20.6237 45.6926 20.5604 45.7185C20.4971 45.7444 20.4395 45.7827 20.3911 45.8311C20.3427 45.8795 20.3044 45.937 20.2785 46.0004C20.2526 46.0637 20.2395 46.1316 20.24 46.2V47.78C20.2395 47.8484 20.2526 47.9163 20.2785 47.9796C20.3044 48.043 20.3427 48.1005 20.3911 48.1489C20.4395 48.1973 20.4971 48.2356 20.5604 48.2615C20.6237 48.2874 20.6916 48.3005 20.76 48.3H22.2C22.2965 48.2989 22.3901 48.3327 22.4636 48.3952C22.5371 48.4577 22.5855 48.5446 22.6 48.64C22.8134 49.7209 23.2419 50.7479 23.86 51.66C23.9126 51.7386 23.9372 51.8326 23.93 51.9269C23.9227 52.0212 23.884 52.1103 23.82 52.18L22.8 53.2C22.704 53.2992 22.6503 53.4319 22.6503 53.57C22.6503 53.7081 22.704 53.8408 22.8 53.94L23.92 55.06C24.0209 55.1609 24.1573 55.2184 24.3 55.22C24.3677 55.2191 24.4345 55.2045 24.4964 55.1769C24.5583 55.1494 24.614 55.1097 24.66 55.06L25.68 54.04C25.707 53.9957 25.7453 53.9593 25.791 53.9347C25.8367 53.9101 25.8881 53.8981 25.94 53.9Z" fill="#D2C090" stroke="#D2C090" stroke-width="0.5"/>
<path d="M30.8399 51.4C29.9697 51.4 29.119 51.1419 28.3954 50.6584C27.6719 50.175 27.1079 49.4878 26.7749 48.6838C26.4418 47.8798 26.3547 46.9951 26.5245 46.1416C26.6943 45.2881 27.1133 44.5041 27.7287 43.8887C28.344 43.2734 29.128 42.8543 29.9815 42.6845C30.8351 42.5147 31.7198 42.6019 32.5237 42.9349C33.3277 43.2679 34.0149 43.8319 34.4984 44.5555C34.9819 45.279 35.2399 46.1297 35.2399 47C35.2368 48.166 34.7722 49.2833 33.9477 50.1077C33.1232 50.9322 32.0059 51.3968 30.8399 51.4ZM30.8399 43.42C30.1319 43.42 29.4397 43.6299 28.851 44.0233C28.2623 44.4167 27.8034 44.9758 27.5325 45.63C27.2615 46.2841 27.1906 47.0039 27.3287 47.6984C27.4669 48.3929 27.8078 49.0307 28.3085 49.5314C28.8092 50.0321 29.4471 50.3731 30.1415 50.5112C30.836 50.6493 31.5558 50.5784 32.2099 50.3075C32.8641 50.0365 33.4232 49.5776 33.8166 48.9889C34.21 48.4002 34.4199 47.708 34.4199 47C34.4205 46.5297 34.3282 46.0639 34.1485 45.6293C33.9688 45.1948 33.7051 44.7999 33.3726 44.4674C33.04 44.1348 32.6452 43.8711 32.2106 43.6914C31.776 43.5117 31.3102 43.4195 30.8399 43.42Z" fill="#D2C090" stroke="#D2C090" stroke-width="0.5"/>
</g>
<defs>
<clipPath id="clip0_75_2">
<rect width="40" height="40" fill="white" transform="translate(19 19)"/>
</clipPath>
</defs>
</svg>
