<svg width="78" height="78" viewBox="0 0 78 78" fill="none" xmlns="http://www.w3.org/2000/svg">
<circle cx="39" cy="39" r="36.5" stroke="#D2C090" stroke-opacity="0.21" stroke-width="5"/>
<path d="M28.9474 32.0249V29.6163H30.5263V31.2378H33.3053C33.4698 31.2368 33.6306 31.2871 33.765 31.3817C33.8995 31.4762 34.001 31.6103 34.0553 31.7652C34.1279 31.9718 34.2122 32.1742 34.3079 32.3713C34.3781 32.5187 34.4007 32.6843 34.3724 32.845C34.3441 33.0058 34.2664 33.1538 34.15 33.2686L32.1842 35.2285L34.4184 37.4561L36.3842 35.4962C36.4993 35.3801 36.6478 35.3026 36.809 35.2744C36.9703 35.2462 37.1363 35.2687 37.2842 35.3387C37.4819 35.4341 37.6849 35.5182 37.8921 35.5906C38.0474 35.6447 38.1819 35.7459 38.2768 35.88C38.3716 36.0141 38.422 36.1743 38.4211 36.3384V39.109H41.5789V36.3384C41.578 36.1743 41.6284 36.0141 41.7232 35.88C41.8181 35.7459 41.9526 35.6447 42.1079 35.5906C42.3151 35.5182 42.5181 35.4341 42.7158 35.3387C42.8637 35.2687 43.0297 35.2462 43.191 35.2744C43.3522 35.3026 43.5007 35.3801 43.6158 35.4962L45.5816 37.4561L47.8158 35.2285L45.85 33.2686C45.7336 33.1538 45.6559 33.0058 45.6276 32.845C45.5993 32.6843 45.6219 32.5187 45.6921 32.3713C45.7878 32.1742 45.8721 31.9718 45.9447 31.7652C45.999 31.6103 46.1005 31.4762 46.235 31.3817C46.3694 31.2871 46.5302 31.2368 46.6947 31.2378H49.4737V29.6636H51.0526V32.0249C51.0526 32.2337 50.9695 32.4339 50.8214 32.5815C50.6733 32.7291 50.4725 32.8121 50.2632 32.8121H47.6263L49.4737 34.6697C49.5477 34.7428 49.6064 34.8299 49.6465 34.9258C49.6866 35.0217 49.7072 35.1246 49.7072 35.2285C49.7072 35.3324 49.6866 35.4353 49.6465 35.5312C49.6064 35.6272 49.5477 35.7142 49.4737 35.7874L46.1421 39.109C46.0687 39.1828 45.9814 39.2414 45.8852 39.2813C45.789 39.3213 45.6858 39.3419 45.5816 39.3419C45.4774 39.3419 45.3742 39.3213 45.278 39.2813C45.1818 39.2414 45.0944 39.1828 45.0211 39.109L43.1579 37.2672V39.8962C43.1579 40.1049 43.0747 40.3051 42.9267 40.4528C42.7786 40.6004 42.5778 40.6833 42.3684 40.6833H37.6316C37.4222 40.6833 37.2214 40.6004 37.0733 40.4528C36.9253 40.3051 36.8421 40.1049 36.8421 39.8962V37.2672L34.9789 39.109C34.9056 39.1828 34.8182 39.2414 34.722 39.2813C34.6258 39.3213 34.5226 39.3419 34.4184 39.3419C34.3142 39.3419 34.211 39.3213 34.1148 39.2813C34.0186 39.2414 33.9313 39.1828 33.8579 39.109L30.5263 35.7874C30.4523 35.7142 30.3936 35.6272 30.3535 35.5312C30.3134 35.4353 30.2928 35.3324 30.2928 35.2285C30.2928 35.1246 30.3134 35.0217 30.3535 34.9258C30.3936 34.8299 30.4523 34.7428 30.5263 34.6697L32.3737 32.8121H29.7368C29.5275 32.8121 29.3267 32.7291 29.1786 32.5815C29.0305 32.4339 28.9474 32.2337 28.9474 32.0249ZM40 32.8121C39.1625 32.8121 38.3593 32.4804 37.767 31.8899C37.1748 31.2994 36.8421 30.4986 36.8421 29.6636H35.2632C35.2632 30.9161 35.7622 32.1174 36.6505 33.0031C37.5389 33.8887 38.7437 34.3863 40 34.3863C41.2563 34.3863 42.4611 33.8887 43.3495 33.0031C44.2378 32.1174 44.7368 30.9161 44.7368 29.6636H43.1579C43.1579 30.4986 42.8252 31.2994 42.233 31.8899C41.6407 32.4804 40.8375 32.8121 40 32.8121ZM28.9474 28.0893V24.9408C28.9474 24.7321 29.0305 24.5319 29.1786 24.3843C29.3267 24.2366 29.5275 24.1537 29.7368 24.1537H30.5658C30.7181 22.4026 31.4053 20.7401 32.5345 19.3904C33.6638 18.0407 35.181 17.0686 36.8816 16.6052C37.0098 15.8755 37.392 15.2142 37.9609 14.7377C38.5298 14.2612 39.2491 14 39.9921 14C40.7351 14 41.4544 14.2612 42.0233 14.7377C42.5922 15.2142 42.9744 15.8755 43.1026 16.6052C44.8145 17.0569 46.345 18.0242 47.4852 19.3752C48.6254 20.7261 49.3198 22.3948 49.4737 24.1537H50.2632C50.4725 24.1537 50.6733 24.2366 50.8214 24.3843C50.9695 24.5319 51.0526 24.7321 51.0526 24.9408V28.0893C51.0526 28.2981 50.9695 28.4983 50.8214 28.6459C50.6733 28.7935 50.4725 28.8765 50.2632 28.8765H29.7368C29.5275 28.8765 29.3267 28.7935 29.1786 28.6459C29.0305 28.4983 28.9474 28.2981 28.9474 28.0893ZM32.1447 24.1537H47.8474C47.6958 22.8353 47.1759 21.5858 46.3468 20.5476C45.5176 19.5094 44.4127 18.7244 43.1579 18.2818V21.0052H41.5789V17.0696C41.5789 16.6521 41.4126 16.2517 41.1165 15.9564C40.8204 15.6612 40.4188 15.4954 40 15.4954C39.5812 15.4954 39.1796 15.6612 38.8835 15.9564C38.5874 16.2517 38.4211 16.6521 38.4211 17.0696V21.0052H36.8421V18.2818C35.5823 18.7174 34.4723 19.5004 33.6408 20.5397C32.8094 21.5791 32.2906 22.8322 32.1447 24.1537ZM30.5263 27.3022H49.4737V25.728H30.5263V27.3022ZM55 46.1932V57.2129C55 57.4216 54.9168 57.6218 54.7688 57.7695C54.6207 57.9171 54.4199 58 54.2105 58H25.7895C25.5801 58 25.3793 57.9171 25.2312 57.7695C25.0832 57.6218 25 57.4216 25 57.2129V46.1932C25 45.1494 25.4159 44.1483 26.1562 43.4103C26.8964 42.6722 27.9005 42.2575 28.9474 42.2575H51.0526C52.0995 42.2575 53.1036 42.6722 53.8438 43.4103C54.5841 44.1483 55 45.1494 55 46.1932ZM36.8421 43.8318C36.8421 44.6668 37.1748 45.4677 37.767 46.0581C38.3593 46.6486 39.1625 46.9803 40 46.9803C40.8375 46.9803 41.6407 46.6486 42.233 46.0581C42.8252 45.4677 43.1579 44.6668 43.1579 43.8318H36.8421ZM35.2632 43.8318H30.5263V56.4258H33.6842V50.9159C33.6842 50.7071 33.7674 50.5069 33.9154 50.3593C34.0635 50.2117 34.2643 50.1288 34.4737 50.1288H45.5263C45.7357 50.1288 45.9365 50.2117 46.0846 50.3593C46.2326 50.5069 46.3158 50.7071 46.3158 50.9159V56.4258H49.4737V43.8318H44.7368C44.7368 45.0843 44.2378 46.2856 43.3495 47.1713C42.4611 48.057 41.2563 48.5545 40 48.5545C38.7437 48.5545 37.5389 48.057 36.6505 47.1713C35.7622 46.2856 35.2632 45.0843 35.2632 43.8318ZM26.5789 56.4258H28.9474V43.8318C28.3192 43.8318 27.7168 44.0806 27.2726 44.5234C26.8285 44.9663 26.5789 45.5669 26.5789 46.1932V56.4258ZM44.7368 56.4258V51.703H35.2632V56.4258H44.7368ZM53.4211 46.1932C53.4211 45.5669 53.1715 44.9663 52.7274 44.5234C52.2832 44.0806 51.6808 43.8318 51.0526 43.8318V56.4258H53.4211V46.1932Z" fill="#D2C090"/>
</svg>
